<mxfile host="Electron" modified="2023-04-30T20:36:58.056Z" agent="Mozilla/5.0 (Windows NT 10.0; Win64; x64) AppleWebKit/537.36 (KHTML, like Gecko) draw.io/21.2.1 Chrome/112.0.5615.87 Electron/24.1.2 Safari/537.36" etag="PN6eBVbwwIV5zPf1Bh4r" version="21.2.1" type="device">
  <diagram name="Page-1" id="KkXltk--4Qlm6cffHJfb">
    <mxGraphModel dx="2578" dy="1505" grid="1" gridSize="10" guides="1" tooltips="1" connect="1" arrows="1" fold="1" page="1" pageScale="1" pageWidth="827" pageHeight="1169" math="0" shadow="0">
      <root>
        <mxCell id="0" />
        <mxCell id="1" parent="0" />
        <mxCell id="m5uBOJ5qvGsPhOKfhb_N-3" value="Odposlouchávač komunikace" style="swimlane;whiteSpace=wrap;html=1;" parent="1" vertex="1">
          <mxGeometry x="140" y="10" width="280" height="930" as="geometry" />
        </mxCell>
        <mxCell id="m5uBOJ5qvGsPhOKfhb_N-5" value="Připojení k testovací službě" style="rounded=0;whiteSpace=wrap;html=1;" parent="m5uBOJ5qvGsPhOKfhb_N-3" vertex="1">
          <mxGeometry x="80" y="78.5" width="120" height="60" as="geometry" />
        </mxCell>
        <mxCell id="m5uBOJ5qvGsPhOKfhb_N-8" style="edgeStyle=orthogonalEdgeStyle;rounded=0;orthogonalLoop=1;jettySize=auto;html=1;" parent="m5uBOJ5qvGsPhOKfhb_N-3" source="m5uBOJ5qvGsPhOKfhb_N-6" target="m5uBOJ5qvGsPhOKfhb_N-5" edge="1">
          <mxGeometry relative="1" as="geometry" />
        </mxCell>
        <mxCell id="m5uBOJ5qvGsPhOKfhb_N-79" value="" style="edgeStyle=orthogonalEdgeStyle;rounded=0;orthogonalLoop=1;jettySize=auto;html=1;" parent="m5uBOJ5qvGsPhOKfhb_N-3" source="m5uBOJ5qvGsPhOKfhb_N-6" target="m5uBOJ5qvGsPhOKfhb_N-5" edge="1">
          <mxGeometry relative="1" as="geometry" />
        </mxCell>
        <mxCell id="m5uBOJ5qvGsPhOKfhb_N-6" value="" style="ellipse;whiteSpace=wrap;html=1;aspect=fixed;fillColor=#000000;" parent="m5uBOJ5qvGsPhOKfhb_N-3" vertex="1">
          <mxGeometry x="126.5" y="31.5" width="27" height="27" as="geometry" />
        </mxCell>
        <mxCell id="m5uBOJ5qvGsPhOKfhb_N-30" style="edgeStyle=orthogonalEdgeStyle;rounded=0;orthogonalLoop=1;jettySize=auto;html=1;" parent="m5uBOJ5qvGsPhOKfhb_N-3" source="m5uBOJ5qvGsPhOKfhb_N-26" target="m5uBOJ5qvGsPhOKfhb_N-28" edge="1">
          <mxGeometry relative="1" as="geometry" />
        </mxCell>
        <mxCell id="m5uBOJ5qvGsPhOKfhb_N-26" value="Zahájení zaznamenávání komunikace" style="rounded=0;whiteSpace=wrap;html=1;" parent="m5uBOJ5qvGsPhOKfhb_N-3" vertex="1">
          <mxGeometry x="80" y="308.5" width="120" height="60" as="geometry" />
        </mxCell>
        <mxCell id="m5uBOJ5qvGsPhOKfhb_N-28" value="Odeslání potvrzující zprávy" style="rounded=0;whiteSpace=wrap;html=1;" parent="m5uBOJ5qvGsPhOKfhb_N-3" vertex="1">
          <mxGeometry x="80" y="398.5" width="120" height="60" as="geometry" />
        </mxCell>
        <mxCell id="m5uBOJ5qvGsPhOKfhb_N-41" value="Odeslání potvrzující zprávy" style="rounded=0;whiteSpace=wrap;html=1;" parent="m5uBOJ5qvGsPhOKfhb_N-3" vertex="1">
          <mxGeometry x="80" y="488.5" width="120" height="60" as="geometry" />
        </mxCell>
        <mxCell id="m5uBOJ5qvGsPhOKfhb_N-53" style="edgeStyle=orthogonalEdgeStyle;rounded=0;orthogonalLoop=1;jettySize=auto;html=1;entryX=0.5;entryY=0;entryDx=0;entryDy=0;" parent="m5uBOJ5qvGsPhOKfhb_N-3" source="m5uBOJ5qvGsPhOKfhb_N-50" target="m5uBOJ5qvGsPhOKfhb_N-52" edge="1">
          <mxGeometry relative="1" as="geometry" />
        </mxCell>
        <mxCell id="m5uBOJ5qvGsPhOKfhb_N-50" value="Zastavení zaznamenávání komunikace" style="rounded=0;whiteSpace=wrap;html=1;" parent="m5uBOJ5qvGsPhOKfhb_N-3" vertex="1">
          <mxGeometry x="80" y="658.5" width="120" height="60" as="geometry" />
        </mxCell>
        <mxCell id="m5uBOJ5qvGsPhOKfhb_N-52" value="Odeslání potvrzující zprávy" style="rounded=0;whiteSpace=wrap;html=1;" parent="m5uBOJ5qvGsPhOKfhb_N-3" vertex="1">
          <mxGeometry x="80" y="738.5" width="120" height="60" as="geometry" />
        </mxCell>
        <mxCell id="m5uBOJ5qvGsPhOKfhb_N-72" value="Přijmutí potvrzující zprávy a vyčkání na další instrukce" style="rounded=0;whiteSpace=wrap;html=1;" parent="m5uBOJ5qvGsPhOKfhb_N-3" vertex="1">
          <mxGeometry x="80" y="228.5" width="120" height="60" as="geometry" />
        </mxCell>
        <mxCell id="oFidPCXsF8IUjtAiDOpY-23" style="edgeStyle=orthogonalEdgeStyle;rounded=0;orthogonalLoop=1;jettySize=auto;html=1;entryX=0.5;entryY=0;entryDx=0;entryDy=0;" edge="1" parent="m5uBOJ5qvGsPhOKfhb_N-3" source="m5uBOJ5qvGsPhOKfhb_N-83" target="m5uBOJ5qvGsPhOKfhb_N-86">
          <mxGeometry relative="1" as="geometry" />
        </mxCell>
        <mxCell id="m5uBOJ5qvGsPhOKfhb_N-83" value="Přijmutí zprávy a ukončení zařízení" style="rounded=0;whiteSpace=wrap;html=1;" parent="m5uBOJ5qvGsPhOKfhb_N-3" vertex="1">
          <mxGeometry x="80" y="818.5" width="120" height="60" as="geometry" />
        </mxCell>
        <mxCell id="m5uBOJ5qvGsPhOKfhb_N-86" value="" style="ellipse;html=1;shape=endState;fillColor=#000000;strokeColor=#000000;" parent="m5uBOJ5qvGsPhOKfhb_N-3" vertex="1">
          <mxGeometry x="125" y="898" width="30" height="30" as="geometry" />
        </mxCell>
        <mxCell id="m5uBOJ5qvGsPhOKfhb_N-4" value="Testovací služba" style="swimlane;whiteSpace=wrap;html=1;" parent="1" vertex="1">
          <mxGeometry x="420" y="10" width="280" height="930" as="geometry" />
        </mxCell>
        <mxCell id="m5uBOJ5qvGsPhOKfhb_N-18" style="edgeStyle=orthogonalEdgeStyle;rounded=0;orthogonalLoop=1;jettySize=auto;html=1;entryX=0.5;entryY=0;entryDx=0;entryDy=0;" parent="m5uBOJ5qvGsPhOKfhb_N-4" source="m5uBOJ5qvGsPhOKfhb_N-9" target="m5uBOJ5qvGsPhOKfhb_N-17" edge="1">
          <mxGeometry relative="1" as="geometry" />
        </mxCell>
        <mxCell id="m5uBOJ5qvGsPhOKfhb_N-9" value="Přijmutí připojení" style="rounded=0;whiteSpace=wrap;html=1;" parent="m5uBOJ5qvGsPhOKfhb_N-4" vertex="1">
          <mxGeometry x="80" y="78.5" width="120" height="60" as="geometry" />
        </mxCell>
        <mxCell id="m5uBOJ5qvGsPhOKfhb_N-76" style="edgeStyle=orthogonalEdgeStyle;rounded=0;orthogonalLoop=1;jettySize=auto;html=1;" parent="m5uBOJ5qvGsPhOKfhb_N-4" source="m5uBOJ5qvGsPhOKfhb_N-17" target="m5uBOJ5qvGsPhOKfhb_N-74" edge="1">
          <mxGeometry relative="1" as="geometry" />
        </mxCell>
        <mxCell id="m5uBOJ5qvGsPhOKfhb_N-17" value="Odeslání potvrzující zprávy" style="rounded=0;whiteSpace=wrap;html=1;" parent="m5uBOJ5qvGsPhOKfhb_N-4" vertex="1">
          <mxGeometry x="80" y="158.5" width="120" height="60" as="geometry" />
        </mxCell>
        <mxCell id="m5uBOJ5qvGsPhOKfhb_N-23" value="Odeslání zprávy o spuštění fáze přípravy na test" style="rounded=0;whiteSpace=wrap;html=1;" parent="m5uBOJ5qvGsPhOKfhb_N-4" vertex="1">
          <mxGeometry x="80" y="308.5" width="120" height="60" as="geometry" />
        </mxCell>
        <mxCell id="m5uBOJ5qvGsPhOKfhb_N-45" style="edgeStyle=orthogonalEdgeStyle;rounded=0;orthogonalLoop=1;jettySize=auto;html=1;entryX=0.5;entryY=0;entryDx=0;entryDy=0;" parent="m5uBOJ5qvGsPhOKfhb_N-4" source="m5uBOJ5qvGsPhOKfhb_N-31" target="m5uBOJ5qvGsPhOKfhb_N-40" edge="1">
          <mxGeometry relative="1" as="geometry" />
        </mxCell>
        <mxCell id="m5uBOJ5qvGsPhOKfhb_N-31" value="Přijmutí potvrzující zprávy" style="rounded=0;whiteSpace=wrap;html=1;" parent="m5uBOJ5qvGsPhOKfhb_N-4" vertex="1">
          <mxGeometry x="80" y="398.5" width="120" height="60" as="geometry" />
        </mxCell>
        <mxCell id="m5uBOJ5qvGsPhOKfhb_N-40" value="Odeslání zprávy o spuštění fáze testování" style="rounded=0;whiteSpace=wrap;html=1;" parent="m5uBOJ5qvGsPhOKfhb_N-4" vertex="1">
          <mxGeometry x="80" y="488.5" width="120" height="60" as="geometry" />
        </mxCell>
        <mxCell id="m5uBOJ5qvGsPhOKfhb_N-49" style="edgeStyle=orthogonalEdgeStyle;rounded=0;orthogonalLoop=1;jettySize=auto;html=1;" parent="m5uBOJ5qvGsPhOKfhb_N-4" target="m5uBOJ5qvGsPhOKfhb_N-48" edge="1">
          <mxGeometry relative="1" as="geometry">
            <mxPoint x="140" y="628.5" as="sourcePoint" />
          </mxGeometry>
        </mxCell>
        <mxCell id="m5uBOJ5qvGsPhOKfhb_N-46" value="Přijmutí potvrzující zprávy" style="rounded=0;whiteSpace=wrap;html=1;" parent="m5uBOJ5qvGsPhOKfhb_N-4" vertex="1">
          <mxGeometry x="80" y="578.5" width="120" height="60" as="geometry" />
        </mxCell>
        <mxCell id="m5uBOJ5qvGsPhOKfhb_N-48" value="Odeslání zprávy o spuštění fáze úklid po testu" style="rounded=0;whiteSpace=wrap;html=1;" parent="m5uBOJ5qvGsPhOKfhb_N-4" vertex="1">
          <mxGeometry x="80" y="658.5" width="120" height="60" as="geometry" />
        </mxCell>
        <mxCell id="m5uBOJ5qvGsPhOKfhb_N-84" style="edgeStyle=orthogonalEdgeStyle;rounded=0;orthogonalLoop=1;jettySize=auto;html=1;entryX=0.5;entryY=0;entryDx=0;entryDy=0;" parent="m5uBOJ5qvGsPhOKfhb_N-4" source="m5uBOJ5qvGsPhOKfhb_N-55" target="m5uBOJ5qvGsPhOKfhb_N-82" edge="1">
          <mxGeometry relative="1" as="geometry" />
        </mxCell>
        <mxCell id="m5uBOJ5qvGsPhOKfhb_N-55" value="Přijmutí potvrzující zprávy" style="rounded=0;whiteSpace=wrap;html=1;" parent="m5uBOJ5qvGsPhOKfhb_N-4" vertex="1">
          <mxGeometry x="80" y="738.5" width="120" height="60" as="geometry" />
        </mxCell>
        <mxCell id="oFidPCXsF8IUjtAiDOpY-21" style="edgeStyle=orthogonalEdgeStyle;rounded=0;orthogonalLoop=1;jettySize=auto;html=1;entryX=0.675;entryY=-0.025;entryDx=0;entryDy=0;entryPerimeter=0;" edge="1" parent="m5uBOJ5qvGsPhOKfhb_N-4" source="m5uBOJ5qvGsPhOKfhb_N-74" target="m5uBOJ5qvGsPhOKfhb_N-23">
          <mxGeometry relative="1" as="geometry">
            <Array as="points">
              <mxPoint x="161" y="260" />
              <mxPoint x="161" y="260" />
            </Array>
          </mxGeometry>
        </mxCell>
        <mxCell id="m5uBOJ5qvGsPhOKfhb_N-74" value="" style="shape=line;html=1;strokeWidth=6;strokeColor=#000000;" parent="m5uBOJ5qvGsPhOKfhb_N-4" vertex="1">
          <mxGeometry x="40" y="238.5" width="200" height="10" as="geometry" />
        </mxCell>
        <mxCell id="m5uBOJ5qvGsPhOKfhb_N-82" value="Odeslání zprávy o ukončení zařízení" style="rounded=0;whiteSpace=wrap;html=1;" parent="m5uBOJ5qvGsPhOKfhb_N-4" vertex="1">
          <mxGeometry x="80" y="818.5" width="120" height="60" as="geometry" />
        </mxCell>
        <mxCell id="m5uBOJ5qvGsPhOKfhb_N-16" style="edgeStyle=orthogonalEdgeStyle;rounded=0;orthogonalLoop=1;jettySize=auto;html=1;entryX=0;entryY=0.5;entryDx=0;entryDy=0;" parent="1" source="m5uBOJ5qvGsPhOKfhb_N-5" target="m5uBOJ5qvGsPhOKfhb_N-9" edge="1">
          <mxGeometry relative="1" as="geometry" />
        </mxCell>
        <mxCell id="m5uBOJ5qvGsPhOKfhb_N-27" style="edgeStyle=orthogonalEdgeStyle;rounded=0;orthogonalLoop=1;jettySize=auto;html=1;entryX=1;entryY=0.5;entryDx=0;entryDy=0;" parent="1" source="m5uBOJ5qvGsPhOKfhb_N-23" target="m5uBOJ5qvGsPhOKfhb_N-26" edge="1">
          <mxGeometry relative="1" as="geometry" />
        </mxCell>
        <mxCell id="m5uBOJ5qvGsPhOKfhb_N-32" style="edgeStyle=orthogonalEdgeStyle;rounded=0;orthogonalLoop=1;jettySize=auto;html=1;entryX=0;entryY=0.5;entryDx=0;entryDy=0;" parent="1" source="m5uBOJ5qvGsPhOKfhb_N-28" target="m5uBOJ5qvGsPhOKfhb_N-31" edge="1">
          <mxGeometry relative="1" as="geometry" />
        </mxCell>
        <mxCell id="m5uBOJ5qvGsPhOKfhb_N-42" style="edgeStyle=orthogonalEdgeStyle;rounded=0;orthogonalLoop=1;jettySize=auto;html=1;entryX=1;entryY=0.5;entryDx=0;entryDy=0;" parent="1" source="m5uBOJ5qvGsPhOKfhb_N-40" target="m5uBOJ5qvGsPhOKfhb_N-41" edge="1">
          <mxGeometry relative="1" as="geometry" />
        </mxCell>
        <mxCell id="m5uBOJ5qvGsPhOKfhb_N-51" style="edgeStyle=orthogonalEdgeStyle;rounded=0;orthogonalLoop=1;jettySize=auto;html=1;" parent="1" source="m5uBOJ5qvGsPhOKfhb_N-48" target="m5uBOJ5qvGsPhOKfhb_N-50" edge="1">
          <mxGeometry relative="1" as="geometry" />
        </mxCell>
        <mxCell id="m5uBOJ5qvGsPhOKfhb_N-57" style="edgeStyle=orthogonalEdgeStyle;rounded=0;orthogonalLoop=1;jettySize=auto;html=1;entryX=0;entryY=0.5;entryDx=0;entryDy=0;" parent="1" source="m5uBOJ5qvGsPhOKfhb_N-52" target="m5uBOJ5qvGsPhOKfhb_N-55" edge="1">
          <mxGeometry relative="1" as="geometry" />
        </mxCell>
        <mxCell id="m5uBOJ5qvGsPhOKfhb_N-85" style="edgeStyle=orthogonalEdgeStyle;rounded=0;orthogonalLoop=1;jettySize=auto;html=1;entryX=1;entryY=0.5;entryDx=0;entryDy=0;" parent="1" source="m5uBOJ5qvGsPhOKfhb_N-82" target="m5uBOJ5qvGsPhOKfhb_N-83" edge="1">
          <mxGeometry relative="1" as="geometry" />
        </mxCell>
        <mxCell id="oFidPCXsF8IUjtAiDOpY-17" style="edgeStyle=orthogonalEdgeStyle;rounded=0;orthogonalLoop=1;jettySize=auto;html=1;entryX=0.006;entryY=0.569;entryDx=0;entryDy=0;entryPerimeter=0;" edge="1" parent="1" source="m5uBOJ5qvGsPhOKfhb_N-41" target="m5uBOJ5qvGsPhOKfhb_N-46">
          <mxGeometry relative="1" as="geometry">
            <Array as="points">
              <mxPoint x="280" y="623" />
              <mxPoint x="420" y="623" />
            </Array>
          </mxGeometry>
        </mxCell>
        <mxCell id="oFidPCXsF8IUjtAiDOpY-18" style="edgeStyle=orthogonalEdgeStyle;rounded=0;orthogonalLoop=1;jettySize=auto;html=1;entryX=1;entryY=0.75;entryDx=0;entryDy=0;" edge="1" parent="1" source="m5uBOJ5qvGsPhOKfhb_N-74" target="m5uBOJ5qvGsPhOKfhb_N-72">
          <mxGeometry relative="1" as="geometry">
            <Array as="points">
              <mxPoint x="550" y="284" />
              <mxPoint x="400" y="284" />
            </Array>
          </mxGeometry>
        </mxCell>
      </root>
    </mxGraphModel>
  </diagram>
</mxfile>
